<?xml version="1.0" encoding="utf-8"?>
<!-- Generator: Adobe Illustrator 18.1.0, SVG Export Plug-In . SVG Version: 6.00 Build 0)  -->
<!DOCTYPE svg PUBLIC "-//W3C//DTD SVG 1.1//EN" "http://www.w3.org/Graphics/SVG/1.1/DTD/svg11.dtd">
<svg version="1.1" id="Layer_1" xmlns="http://www.w3.org/2000/svg" xmlns:xlink="http://www.w3.org/1999/xlink" x="0px" y="0px"
	 viewBox="0 0 105.3 107.7" enable-background="new 0 0 105.3 107.7" xml:space="preserve">
<g id="korf_geselecteerd" transform="translate(0.500000, 0.000000)">
	<path id="Shape_1_" fill="none" stroke="#FFFFFF" stroke-width="4" d="M-475.7,10c8.3,0,12.7,6.5,13.2,8.5
		c7.3,0.4,12.5,8.4,10.4,13.8c8.3,1.7,11.3,9.6,7.9,15.6c5,1.4,8.5,10.9,3.8,17.1c5.1,5.1,6,17.2-1.2,21.4
		c-3.3,12.7-28.2,13.1-34.1,13.1c-6,0-30.9-0.5-34.1-13.1c-7.2-4.2-6.2-16.3-1.2-21.4c-4.7-6.2-1.2-15.7,3.8-17.1
		c-3.3-6-0.4-13.9,7.9-15.6c-2.1-5.5,3.2-13.4,10.4-13.8C-488.4,16.5-484,10-475.7,10L-475.7,10z M-476.2,72.5
		c-4.2,0-7.6,7.5-7.6,12.8c0,5.4,3.4,8.3,7.6,8.3c4.2,0,7.6-3,7.6-8.3C-468.7,80-472,72.5-476.2,72.5L-476.2,72.5z"/>
	<path id="Shape_2_" fill="none" stroke="#FFFFFF" stroke-width="4" d="M-475.7,10c8.3,0,12.7,6.5,13.2,8.5
		c7.3,0.4,12.5,8.4,10.4,13.8c8.3,1.7,11.3,9.6,7.9,15.6c5,1.4,8.5,10.9,3.8,17.1c5.1,5.1,6,17.2-1.2,21.4
		c-3.3,12.7-28.2,13.1-34.1,13.1c-6,0-30.9-0.5-34.1-13.1c-7.2-4.2-6.2-16.3-1.2-21.4c-4.7-6.2-1.2-15.7,3.8-17.1
		c-3.3-6-0.4-13.9,7.9-15.6c-2.1-5.5,3.2-13.4,10.4-13.8C-488.4,16.5-484,10-475.7,10L-475.7,10z M-476.2,72.5
		c-4.2,0-7.6,7.5-7.6,12.8c0,5.4,3.4,8.3,7.6,8.3c4.2,0,7.6-3,7.6-8.3C-468.7,80-472,72.5-476.2,72.5L-476.2,72.5z"/>
</g>
<polygon id="honinggraat_nog-niet" fill="none" stroke="#FFFFFF" stroke-width="4" points="-283.1,8.5 -242.6,31.9 -242.6,78.6 
	-283.1,102 -323.6,78.6 -323.6,31.9 "/>
<g id="wattage_nog-niet">
	<path id="Shape" fill="none" stroke="#FFFFFF" stroke-width="2" stroke-miterlimit="10" d="M-137.7,98.1c-0.3,0-0.6-0.1-0.8-0.3
		c-0.4-0.3-0.5-0.8-0.4-1.2l5.5-23.8c0.1-0.5,0.5-0.9,1-0.9c0.5-0.1,1,0.2,1.3,0.6l3.2,5.6l14.3-20.8l-24.9,0.8
		c-0.5,0-1-0.3-1.2-0.7c-0.2-0.4-0.1-0.9,0.2-1.3l40.4-44.9c0.4-0.4,1-0.5,1.6-0.3l14,7.6c0.4,0.2,0.6,0.5,0.6,0.9
		c0,0.4-0.1,0.8-0.4,1l-30.1,24.7h24.7c0.5,0,0.9,0.3,1.1,0.7c0.2,0.4,0.1,0.9-0.2,1.3l-33.1,36.2l6.4,1.8c0.5,0.1,0.9,0.6,0.9,1.1
		c0,0.5-0.2,1-0.7,1.2l-22.8,10.4C-137.3,98-137.5,98.1-137.7,98.1L-137.7,98.1z M-131.7,76.5l-4.2,18.2l17.5-8l-5.1-1.5
		c-0.4-0.1-0.7-0.4-0.8-0.8c-0.1-0.4,0-0.8,0.3-1.1l32.5-35.6h-25.3c-0.5,0-1-0.3-1.2-0.8c-0.2-0.5,0-1,0.4-1.3l31.3-25.7l-11.6-6.2
		l-37.9,42.1l24.5-0.8c0.5,0,0.9,0.2,1.1,0.6c0.2,0.4,0.2,0.9,0,1.3L-127,81.1c-0.2,0.4-0.6,0.6-1.1,0.5c-0.4,0-0.8-0.3-1-0.6
		L-131.7,76.5L-131.7,76.5z"/>
</g>
<g>
	<g id="icon_40818">
		<g id="layer1" transform="translate(0.000000, 0.454338)">
			<path id="path3845" fill="#FFFFFF" d="M55.6,11.7c-0.7,0.1-1.3,0.4-1.8,0.8L11.5,54.3c-1.1,1.1-1.1,2.9,0,4l33.9,33.5
				c1.1,1.1,3,1.1,4.1,0L91.8,50c0.5-0.5,0.8-1.3,0.8-2V14.5c0-1.6-1.3-2.9-2.9-2.9H55.9C55.8,11.7,55.7,11.7,55.6,11.7L55.6,11.7
				L55.6,11.7z M57.1,17.4h29.8v29.4L47.5,85.7L17.7,56.3L57.1,17.4L57.1,17.4z M74,22.3c-2,0-4,0.7-5.6,2.3c-3.1,3-3.1,8,0,11
				c3.1,3,8.1,3,11.2,0c3.1-3,3.1-8,0-11C78.1,23,76.1,22.3,74,22.3L74,22.3L74,22.3z M74,27.9c0.5,0,1.1,0.2,1.5,0.6
				c0.9,0.8,0.9,2.1,0,2.9c-0.9,0.8-2.2,0.8-3,0c-0.9-0.8-0.8-2.1,0-2.9C73,28.2,73.5,27.9,74,27.9L74,27.9L74,27.9z"/>
		</g>
	</g>
	<g id="icon_60867" transform="translate(14.444444, 12.109589)">
		<path id="Shape_3_" fill="#FFFFFF" d="M44.2,52.8H44c-4.7,0-8.3-1.1-10.8-3.5c-1.2-1.1-2.1-2.5-2.7-4.2h5.3c1.7,0,3.1-1.3,3.1-3
			c0-1.6-1.4-3-3.1-3h-6.3c0-0.2,0-0.4,0-0.6c0-0.5,0-1,0.1-1.5h6.3c1.7,0,3.1-1.3,3.1-3s-1.4-3-3.1-3h-4.7c0.6-1.1,1.3-2.1,2.2-2.9
			C37.7,24,44.4,24,44.5,24c1.7,0,3.1-1.3,3.1-2.9c0-1.6-1.3-3-3-3c-0.4,0-9.3-0.1-15.6,5.8c-2.1,2-3.6,4.4-4.6,7.2h-2.7
			c-1.7,0-3.1,1.3-3.1,3s1.4,3,3.1,3h1.6c0,0.5,0,1,0,1.5c0,0.2,0,0.4,0,0.6h-1.5c-1.7,0-3.1,1.3-3.1,3c0,1.6,1.4,3,3.1,3h2.3
			c0.9,3.4,2.5,6.2,4.8,8.5c2.5,2.4,7.1,5.2,14.9,5.2c0.1,0,0.2,0,0.3,0l0.2,0c1.7,0,3.1-1.3,3.1-3S45.9,52.8,44.2,52.8L44.2,52.8
			L44.2,52.8z"/>
	</g>
</g>
<g id="path-1-link">
	<path id="path-1" fill="#FFFFFF" stroke="#FFFFFF" d="M184.2,32.3v63.6h3.9V53.5H251l-15.7-21.2L251,11.1h-66.8V32.3L184.2,32.3z
		 M188.1,15v34.7h55.4l-13.4-17.3L243.5,15H188.1L188.1,15z"/>
</g>
</svg>
