<?xml version="1.0" encoding="utf-8"?>
<!-- Generator: Adobe Illustrator 18.1.0, SVG Export Plug-In . SVG Version: 6.00 Build 0)  -->
<!DOCTYPE svg PUBLIC "-//W3C//DTD SVG 1.1//EN" "http://www.w3.org/Graphics/SVG/1.1/DTD/svg11.dtd">
<svg version="1.1" id="Layer_1" xmlns="http://www.w3.org/2000/svg" xmlns:xlink="http://www.w3.org/1999/xlink" x="0px" y="0px"
	 viewBox="0 0 107.3 109.7" enable-background="new 0 0 107.3 109.7" xml:space="preserve">
<g id="korf_geselecteerd" transform="translate(0.500000, 0.000000)">
	<path id="Shape_1_" fill="none" stroke="#FFFFFF" stroke-width="4" d="M-140.1,10c8.3,0,12.7,6.5,13.2,8.5
		c7.3,0.4,12.5,8.4,10.4,13.8c8.3,1.7,11.3,9.6,7.9,15.6c5,1.4,8.5,10.9,3.8,17.1c5.1,5.1,6,17.2-1.2,21.4
		c-3.3,12.7-28.2,13.1-34.1,13.1c-6,0-30.9-0.5-34.1-13.1c-7.2-4.2-6.2-16.3-1.2-21.4c-4.7-6.2-1.2-15.7,3.8-17.1
		c-3.3-6-0.4-13.9,7.9-15.6c-2.1-5.5,3.2-13.4,10.4-13.8C-152.8,16.5-148.4,10-140.1,10L-140.1,10z M-140.6,72.5
		c-4.2,0-7.6,7.5-7.6,12.8c0,5.4,3.4,8.3,7.6,8.3c4.2,0,7.6-3,7.6-8.3C-133.1,80-136.5,72.5-140.6,72.5L-140.6,72.5z"/>
	<path id="Shape_2_" fill="none" stroke="#FFFFFF" stroke-width="4" d="M-140.1,10c8.3,0,12.7,6.5,13.2,8.5
		c7.3,0.4,12.5,8.4,10.4,13.8c8.3,1.7,11.3,9.6,7.9,15.6c5,1.4,8.5,10.9,3.8,17.1c5.1,5.1,6,17.2-1.2,21.4
		c-3.3,12.7-28.2,13.1-34.1,13.1c-6,0-30.9-0.5-34.1-13.1c-7.2-4.2-6.2-16.3-1.2-21.4c-4.7-6.2-1.2-15.7,3.8-17.1
		c-3.3-6-0.4-13.9,7.9-15.6c-2.1-5.5,3.2-13.4,10.4-13.8C-152.8,16.5-148.4,10-140.1,10L-140.1,10z M-140.6,72.5
		c-4.2,0-7.6,7.5-7.6,12.8c0,5.4,3.4,8.3,7.6,8.3c4.2,0,7.6-3,7.6-8.3C-133.1,80-136.5,72.5-140.6,72.5L-140.6,72.5z"/>
</g>
<polygon id="honinggraat_nog-niet" fill="none" stroke="#FFFFFF" stroke-width="4" points="52.5,8.5 93,31.9 93,78.6 52.5,102 
	12,78.6 12,31.9 "/>
</svg>
