<?xml version="1.0" encoding="utf-8"?>
<!-- Generator: Adobe Illustrator 18.1.0, SVG Export Plug-In . SVG Version: 6.00 Build 0)  -->
<!DOCTYPE svg PUBLIC "-//W3C//DTD SVG 1.1//EN" "http://www.w3.org/Graphics/SVG/1.1/DTD/svg11.dtd">
<svg version="1.1" id="Layer_1" xmlns="http://www.w3.org/2000/svg" xmlns:xlink="http://www.w3.org/1999/xlink" x="0px" y="0px"
	 viewBox="0 0 109.8 112.2" enable-background="new 0 0 109.8 112.2" xml:space="preserve">
<g id="korf_geselecteerd" transform="translate(0.500000, 0.000000)">
	<path id="Shape_1_" fill="none" stroke="#FFFFFF" stroke-width="4" d="M53.5,17c7.6,0,11.5,5.9,12,7.8c6.6,0.4,11.4,7.6,9.5,12.6
		c7.6,1.5,10.3,8.7,7.2,14.2c4.6,1.2,7.7,9.9,3.4,15.6c4.6,4.7,5.5,15.7-1.1,19.5c-3,11.5-25.7,11.9-31.1,11.9
		c-5.4,0-28.1-0.4-31.1-11.9c-6.5-3.9-5.7-14.9-1.1-19.5c-4.3-5.7-1.1-14.3,3.4-15.6c-3-5.4-0.3-12.6,7.2-14.2
		c-1.9-5,2.9-12.2,9.5-12.6C41.9,22.9,45.9,17,53.5,17L53.5,17z M53,74c-3.8,0-6.9,6.8-6.9,11.7c0,4.9,3.1,7.6,6.9,7.6
		c3.8,0,6.9-2.7,6.9-7.6C59.9,80.8,56.8,74,53,74L53,74z"/>
	<path id="Shape_2_" fill="none" stroke="#FFFFFF" stroke-width="4" d="M53.5,17c7.6,0,11.5,5.9,12,7.8c6.6,0.4,11.4,7.6,9.5,12.6
		c7.6,1.5,10.3,8.7,7.2,14.2c4.6,1.2,7.7,9.9,3.4,15.6c4.6,4.7,5.5,15.7-1.1,19.5c-3,11.5-25.7,11.9-31.1,11.9
		c-5.4,0-28.1-0.4-31.1-11.9c-6.5-3.9-5.7-14.9-1.1-19.5c-4.3-5.7-1.1-14.3,3.4-15.6c-3-5.4-0.3-12.6,7.2-14.2
		c-1.9-5,2.9-12.2,9.5-12.6C41.9,22.9,45.9,17,53.5,17L53.5,17z M53,74c-3.8,0-6.9,6.8-6.9,11.7c0,4.9,3.1,7.6,6.9,7.6
		c3.8,0,6.9-2.7,6.9-7.6C59.9,80.8,56.8,74,53,74L53,74z"/>
</g>
</svg>
